<svg width="36" height="36" viewBox="0 0 36 36" fill="none" xmlns="http://www.w3.org/2000/svg">
<path d="M0 16C0 8.45753 0 4.68629 2.34315 2.34315C4.68629 0 8.45753 0 16 0H20C27.5425 0 31.3137 0 33.6569 2.34315C36 4.68629 36 8.45753 36 16V20C36 27.5425 36 31.3137 33.6569 33.6569C31.3137 36 27.5425 36 20 36H16C8.45753 36 4.68629 36 2.34315 33.6569C0 31.3137 0 27.5425 0 20V16Z" fill="#F8FAFC"/>
<path fill-rule="evenodd" clip-rule="evenodd" d="M13.9055 7.09019C14.1215 7.17522 14.3165 7.31519 14.4935 7.5002C14.7885 7.80619 15.0375 8.24417 15.2275 8.76316C15.4185 9.28514 15.5425 9.86314 15.5895 10.4431C16.219 10.0869 16.9178 9.87005 17.6384 9.80712L17.6894 9.80314C18.5594 9.73311 19.4193 9.89014 20.1693 10.2771C20.2703 10.3303 20.3694 10.3869 20.4663 10.4471C20.5163 9.87814 20.6383 9.31312 20.8263 8.80314C21.0163 8.28317 21.2653 7.84617 21.5593 7.53919C21.7236 7.36146 21.9245 7.22156 22.1483 7.12919C22.4052 7.02921 22.6782 7.01121 22.9442 7.08719C23.3452 7.20119 23.6892 7.4552 23.9602 7.82419C24.2082 8.16121 24.3942 8.59315 24.5212 9.11114C24.7512 10.0451 24.7912 11.2741 24.6362 12.756L24.6892 12.796L24.7152 12.815C25.4722 13.391 25.9991 14.212 26.2781 15.165C26.7131 16.6519 26.4941 18.3199 25.7441 19.2528L25.7261 19.2738L25.7281 19.2768C26.1451 20.0388 26.3981 20.8438 26.4521 21.6768L26.4541 21.7068C26.5181 22.7717 26.2541 23.8437 25.6402 24.8966L25.6331 24.9066L25.6432 24.9306C26.1151 26.0876 26.2631 27.2526 26.0811 28.4165L26.0751 28.4555C26.047 28.6255 25.9525 28.7774 25.8125 28.8779C25.6724 28.9784 25.4983 29.0192 25.3282 28.9915C25.2013 28.9717 25.0832 28.9146 24.9888 28.8276C24.8945 28.7406 24.8281 28.6274 24.798 28.5026C24.7781 28.4197 24.7748 28.3337 24.7882 28.2496C24.9552 27.2166 24.7982 26.1806 24.3082 25.1267C24.2625 25.0287 24.2421 24.9209 24.2491 24.813C24.2561 24.7052 24.2902 24.6008 24.3482 24.5097L24.3522 24.5037C24.9562 23.5797 25.2062 22.6737 25.1522 21.7837C25.1062 21.0048 24.8272 20.2398 24.3522 19.5108C24.2598 19.3691 24.2268 19.1967 24.2605 19.0309C24.2942 18.8651 24.3918 18.7192 24.5322 18.6248L24.5412 18.6188C24.7842 18.4598 25.0082 18.0539 25.1212 17.4989C25.2459 16.8426 25.2133 16.1662 25.0262 15.5249C24.8212 14.825 24.4462 14.241 23.9212 13.842C23.3262 13.388 22.5383 13.169 21.5413 13.232C21.4109 13.2405 21.281 13.2097 21.1683 13.1435C21.0557 13.0774 20.9654 12.979 20.9093 12.861C20.5953 12.196 20.1373 11.7201 19.5663 11.4251C19.0182 11.1515 18.4044 11.0365 17.7944 11.0931C16.5494 11.1921 15.4515 11.8941 15.1245 12.779C15.0782 12.9036 14.995 13.011 14.886 13.087C14.777 13.1629 14.6474 13.2037 14.5145 13.204C13.4475 13.206 12.6216 13.456 12.0176 13.907C11.4956 14.297 11.1396 14.8419 10.9516 15.4949C10.7815 16.1096 10.7582 16.7556 10.8836 17.3809C10.9956 17.9389 11.2146 18.4009 11.4656 18.6499L11.4736 18.6568C11.6856 18.8638 11.7306 19.1868 11.5826 19.4418C11.2226 20.0638 10.9536 20.9908 10.9096 21.8817C10.8596 22.8997 11.0956 23.7837 11.6286 24.4176L11.6446 24.4367C11.725 24.5304 11.7768 24.6453 11.7937 24.7677C11.8105 24.89 11.7917 25.0147 11.7396 25.1267C11.1636 26.3626 10.9866 27.3785 11.1776 28.1785C11.2116 28.3448 11.1795 28.5177 11.088 28.6606C10.9966 28.8035 10.853 28.9051 10.6879 28.9439C10.5227 28.9827 10.3489 28.9556 10.2034 28.8683C10.058 28.781 9.95221 28.6405 9.90866 28.4765C9.66567 27.4586 9.83067 26.2926 10.3816 24.9786L10.3956 24.9437L10.3877 24.9317C10.1169 24.5317 9.91474 24.0892 9.78965 23.6227L9.78464 23.6037C9.63285 23.0216 9.57313 22.4193 9.60764 21.8187C9.65166 20.9088 9.88565 19.9768 10.2297 19.2288L10.2417 19.2028L10.2396 19.2008C9.94668 18.7828 9.72965 18.2479 9.60966 17.6559L9.60464 17.6319C9.43931 16.8061 9.47117 15.953 9.69764 15.1419C9.95966 14.227 10.4746 13.441 11.2336 12.873C11.2936 12.828 11.3566 12.783 11.4196 12.741C11.2606 11.2481 11.3006 10.0111 11.5316 9.07116C11.6586 8.55316 11.8456 8.12118 12.0936 7.7842C12.3636 7.4162 12.7076 7.16219 13.1085 7.04721C13.3745 6.97123 13.6485 6.9882 13.9055 7.08921V7.09019ZM18.0214 16.1799C18.9574 16.1799 19.8213 16.4929 20.4673 17.0349C21.0973 17.5619 21.4723 18.2699 21.4723 18.9748C21.4723 19.8628 21.0663 20.5548 20.3393 20.9968C19.7193 21.3718 18.8884 21.5538 17.9364 21.5538C16.9274 21.5538 16.0655 21.2947 15.4435 20.8198C14.8265 20.3498 14.4805 19.6898 14.4805 18.9748C14.4805 18.2678 14.8785 17.5579 15.5365 17.0289C16.2044 16.4919 17.0864 16.1799 18.0214 16.1799ZM18.0214 17.0759C17.3276 17.0699 16.6523 17.299 16.1054 17.7259C15.6445 18.0959 15.3835 18.5608 15.3835 18.9758C15.3835 19.4038 15.5935 19.8048 15.9935 20.1098C16.4485 20.4568 17.1174 20.6578 17.9364 20.6578C18.7354 20.6578 19.4094 20.5108 19.8683 20.2318C20.3313 19.9518 20.5683 19.5458 20.5683 18.9748C20.5683 18.5518 20.3223 18.0848 19.8853 17.7189C19.4013 17.3139 18.7454 17.0759 18.0214 17.0759ZM18.6834 18.2858L18.6874 18.2899C18.7159 18.3257 18.7371 18.3668 18.7497 18.4108C18.7624 18.4549 18.7662 18.501 18.761 18.5465C18.7558 18.592 18.7417 18.636 18.7194 18.6761C18.6972 18.7161 18.6672 18.7514 18.6314 18.7798L18.3394 19.0098V19.4558C18.3389 19.5551 18.299 19.6501 18.2285 19.72C18.158 19.79 18.0627 19.8291 17.9634 19.8288C17.8641 19.829 17.7688 19.7899 17.6983 19.72C17.6279 19.6501 17.588 19.5551 17.5874 19.4558V18.9958L17.3164 18.7778C17.2807 18.7492 17.2509 18.7138 17.2289 18.6736C17.2069 18.6334 17.1931 18.5892 17.1883 18.5437C17.1835 18.4981 17.1877 18.4521 17.2008 18.4081C17.2138 18.3642 17.2355 18.3234 17.2644 18.2879C17.3234 18.216 17.4084 18.1703 17.5009 18.1608C17.5934 18.1512 17.6859 18.1786 17.7584 18.2369L17.9734 18.4088L18.1934 18.2348C18.2656 18.1778 18.3572 18.1512 18.4487 18.1608C18.5403 18.1703 18.6245 18.2152 18.6834 18.2858ZM13.6435 16.3669C14.1215 16.3669 14.5105 16.7569 14.5105 17.2379C14.5107 17.4684 14.4194 17.6896 14.2567 17.8529C14.094 18.0162 13.8731 18.1083 13.6425 18.1088C13.4123 18.1081 13.1918 18.0161 13.0293 17.853C12.8668 17.6899 12.7755 17.4691 12.7755 17.2389C12.775 17.0083 12.8661 16.787 13.0286 16.6235C13.1916 16.46 13.4127 16.3677 13.6435 16.3669ZM22.3493 16.3669C22.8293 16.3669 23.2172 16.7569 23.2172 17.2379C23.2175 17.4684 23.1262 17.6897 22.9635 17.853C22.8007 18.0163 22.5798 18.1083 22.3493 18.1088C22.1191 18.108 21.8985 18.016 21.736 17.853C21.5735 17.6899 21.4823 17.4691 21.4823 17.2389C21.4818 17.0083 21.5728 16.787 21.7353 16.6235C21.8979 16.46 22.1187 16.3677 22.3493 16.3669ZM13.4405 8.30019L13.4375 8.30215C13.3217 8.35254 13.2228 8.43516 13.1525 8.54018L13.1475 8.54618C13.0095 8.73517 12.8895 9.01313 12.7995 9.37814C12.6296 10.0701 12.5835 11.0091 12.6756 12.16C13.1055 12.0321 13.5745 11.9521 14.0795 11.923L14.0895 11.9221L14.1085 11.8881C14.1544 11.8063 14.2038 11.7266 14.2565 11.6491C14.3795 10.8781 14.2785 9.95712 14.0035 9.20513C13.8695 8.84115 13.7065 8.55518 13.5505 8.39215C13.5183 8.35826 13.4824 8.32808 13.4435 8.30215L13.4405 8.30019ZM22.6142 8.34017L22.6122 8.34115C22.5733 8.36708 22.5375 8.39726 22.5053 8.43115C22.3493 8.59418 22.1853 8.88114 22.0523 9.24516C21.7623 10.0391 21.6653 11.0211 21.8223 11.8171L21.8803 11.914L21.8883 11.9281H21.9183C22.4146 11.9282 22.9082 11.9996 23.3842 12.1401C23.4702 11.0161 23.4222 10.0971 23.2562 9.41812C23.1662 9.05316 23.0462 8.77516 22.9072 8.58616L22.9032 8.58016C22.8332 8.47477 22.7342 8.39179 22.6182 8.34115H22.6142V8.34017Z" fill="#262626"/>
</svg>
