<svg width="36" height="36" viewBox="0 0 36 36" fill="none" xmlns="http://www.w3.org/2000/svg">
<path d="M0 16C0 8.45753 0 4.68629 2.34315 2.34315C4.68629 0 8.45753 0 16 0H20C27.5425 0 31.3137 0 33.6569 2.34315C36 4.68629 36 8.45753 36 16V20C36 27.5425 36 31.3137 33.6569 33.6569C31.3137 36 27.5425 36 20 36H16C8.45753 36 4.68629 36 2.34315 33.6569C0 31.3137 0 27.5425 0 20V16Z" fill="#F8FAFC"/>
<g clip-path="url(#clip0_2802_1283)">
<path d="M27.8535 16.0027C28.1107 15.2619 28.1996 14.4772 28.1144 13.7009C28.0291 12.9246 27.7717 12.1746 27.3593 11.5011C26.7478 10.4831 25.8142 9.67708 24.693 9.19932C23.5718 8.72156 22.3209 8.59671 21.1207 8.84278C20.4389 8.11729 19.5694 7.57619 18.5998 7.27382C17.6301 6.97145 16.5943 6.91845 15.5965 7.12016C14.5986 7.32186 13.6738 7.77116 12.915 8.42293C12.1561 9.0747 11.5899 9.90599 11.2732 10.8333C10.4736 10.9901 9.71824 11.3084 9.05756 11.7668C8.39688 12.2253 7.8461 12.8133 7.44204 13.4916C6.82395 14.508 6.55978 15.686 6.68773 16.8554C6.81568 18.0248 7.32911 19.125 8.1538 19.9969C7.89568 20.7373 7.80585 21.5219 7.8903 22.2982C7.97476 23.0745 8.23155 23.8246 8.6435 24.4983C9.25573 25.5167 10.1902 26.3229 11.3122 26.8007C12.4342 27.2785 13.6858 27.4031 14.8867 27.1568C15.4284 27.7403 16.094 28.2065 16.8391 28.5244C17.5842 28.8422 18.3916 29.0044 19.2074 29C20.4376 29.0011 21.6362 28.6282 22.6304 27.9353C23.6246 27.2423 24.3629 26.2651 24.7387 25.1447C25.5382 24.9876 26.2934 24.6692 26.9541 24.2108C27.6147 23.7524 28.1656 23.1644 28.5698 22.4863C29.1806 21.4714 29.4403 20.2978 29.3116 19.1333C29.1829 17.9688 28.6726 16.873 27.8535 16.0027ZM19.2074 27.5601C18.1999 27.5616 17.224 27.2239 16.4509 26.606L16.5868 26.5323L21.166 24.004C21.28 23.94 21.3746 23.8489 21.4406 23.7394C21.5066 23.6299 21.5417 23.5058 21.5424 23.3795V17.204L23.4782 18.2752C23.4878 18.2798 23.4961 18.2866 23.5024 18.2948C23.5087 18.3031 23.5129 18.3127 23.5146 18.3228V23.4402C23.5122 24.5322 23.0576 25.5788 22.2504 26.3509C21.4431 27.123 20.349 27.5578 19.2074 27.5601ZM9.94923 23.7785C9.44397 22.944 9.26256 21.9658 9.43691 21.0159L9.57299 21.094L14.1567 23.6224C14.2701 23.686 14.3992 23.7196 14.5307 23.7196C14.6622 23.7196 14.7914 23.686 14.9048 23.6224L20.5041 20.5346V22.6726C20.5036 22.6837 20.5005 22.6945 20.495 22.7043C20.4894 22.714 20.4817 22.7225 20.4723 22.729L15.8342 25.2877C14.8443 25.8331 13.6687 25.9805 12.5653 25.6976C11.4619 25.4146 10.5211 24.7244 9.94923 23.7785ZM8.74327 14.2376C9.25203 13.3978 10.0551 12.7572 11.0102 12.4292V17.6333C11.0085 17.7591 11.0421 17.8829 11.1075 17.992C11.1728 18.1011 11.2676 18.1914 11.3819 18.2535L16.9541 21.3282L15.0181 22.3994C15.0077 22.4047 14.996 22.4075 14.9841 22.4075C14.9723 22.4075 14.9606 22.4047 14.9501 22.3994L10.3211 19.8451C9.33309 19.2973 8.61231 18.3973 8.31658 17.3423C8.02086 16.2872 8.17429 15.1631 8.74327 14.216V14.2376ZM24.6481 17.7721L19.0578 14.667L20.9892 13.6C20.9997 13.5947 21.0114 13.5919 21.0233 13.5919C21.0351 13.5919 21.0468 13.5947 21.0573 13.6L25.6863 16.1587C26.3941 16.5493 26.9711 17.1245 27.3499 17.817C27.7288 18.5096 27.8939 19.2909 27.8259 20.0698C27.7579 20.8487 27.4597 21.5931 26.966 22.216C26.4724 22.8388 25.8037 23.3146 25.038 23.5875V18.3834C25.034 18.2579 24.9959 18.1356 24.9275 18.0284C24.8592 17.9212 24.7629 17.8329 24.6481 17.7721ZM26.575 15.0009L26.4389 14.9228L21.8643 12.3729C21.7502 12.3088 21.6203 12.275 21.4879 12.275C21.3556 12.275 21.2257 12.3088 21.1116 12.3729L15.517 15.4606V13.3226C15.5158 13.3117 15.5177 13.3008 15.5225 13.2908C15.5272 13.2809 15.5348 13.2724 15.5442 13.2662L20.1732 10.7119C20.8827 10.3209 21.6939 10.1313 22.5119 10.1651C23.3299 10.199 24.1209 10.4549 24.7924 10.903C25.4639 11.351 25.9882 11.9728 26.3039 12.6954C26.6196 13.418 26.7136 14.2116 26.5751 14.9835L26.575 15.0009ZM14.4604 18.7911L12.5246 17.7243C12.5149 17.7187 12.5066 17.7111 12.5003 17.7022C12.494 17.6932 12.4899 17.683 12.4881 17.6723V12.568C12.4892 11.785 12.7233 11.0184 13.1631 10.3579C13.6028 9.69746 14.23 9.17038 14.9714 8.83832C15.7128 8.50626 16.5377 8.38294 17.3496 8.48278C18.1616 8.58262 18.9271 8.9015 19.5565 9.40213L19.4204 9.47592L14.8413 12.0041C14.7274 12.068 14.6327 12.1592 14.5668 12.2687C14.5008 12.3782 14.4657 12.5022 14.465 12.6286L14.4604 18.7911ZM15.5123 16.6228L18.0058 15.248L20.5041 16.6228V19.3722L18.015 20.747L15.5169 19.3722L15.5123 16.6228Z" fill="#080808"/>
</g>
<defs>
<clipPath id="clip0_2802_1283">
<rect width="23" height="22" fill="white" transform="translate(6.5 7)"/>
</clipPath>
</defs>
</svg>
