<svg width="36" height="36" viewBox="0 0 36 36" fill="none" xmlns="http://www.w3.org/2000/svg">
<path d="M0 16C0 8.45753 0 4.68629 2.34315 2.34315C4.68629 0 8.45753 0 16 0H20C27.5425 0 31.3137 0 33.6569 2.34315C36 4.68629 36 8.45753 36 16V20C36 27.5425 36 31.3137 33.6569 33.6569C31.3137 36 27.5425 36 20 36H16C8.45753 36 4.68629 36 2.34315 33.6569C0 31.3137 0 27.5425 0 20V16Z" fill="#F8FAFC"/>
<path d="M24.2213 14.0864L24.601 29H27.6425L28.0227 8.65737L24.2213 14.0864Z" fill="#080808"/>
<path d="M28.0227 7H23.3819L16.0994 17.4012L18.4198 20.715L28.0227 7Z" fill="#080808"/>
<path d="M7.97754 29H12.6184L14.9392 25.6862L12.6184 22.3719L7.97754 29Z" fill="#080808"/>
<path d="M7.97754 14.0864L18.4198 29H23.0606L12.6184 14.0864H7.97754Z" fill="#080808"/>
</svg>
