<svg width="14" height="14" viewBox="0 0 14 14" fill="none" xmlns="http://www.w3.org/2000/svg">
<g clip-path="url(#clip0_2773_1215)">
<path d="M9.41323 4.39608L10.9105 5.89333C11.0322 6.01261 11.1958 6.07942 11.3662 6.07942C11.5366 6.07942 11.7002 6.01261 11.8219 5.89333L13.1889 4.52627C13.3082 4.40459 13.375 4.24098 13.375 4.07059C13.375 3.90019 13.3082 3.73659 13.1889 3.6149L11.6917 2.11765M12.9936 0.815689L6.74421 7.0651M7.78578 9.60392C7.78578 11.5813 6.18278 13.1843 4.20539 13.1843C2.228 13.1843 0.625 11.5813 0.625 9.60392C0.625 7.62652 2.228 6.02353 4.20539 6.02353C6.18278 6.02353 7.78578 7.62652 7.78578 9.60392Z" stroke="black" style="stroke:black;stroke-opacity:1;" stroke-width="1.25" stroke-linecap="round" stroke-linejoin="round"/>
</g>
<defs>
<clipPath id="clip0_2773_1215">
<rect width="14" height="14" fill="white" style="fill:white;fill-opacity:1;"/>
</clipPath>
</defs>
</svg>
