<svg width="60" height="60" viewBox="0 0 60 60" fill="none" xmlns="http://www.w3.org/2000/svg">
<path d="M23.778 13.4391C26.2933 4.47971 27.551 0 30 0C32.449 0 33.7067 4.47971 36.222 13.4391L37.5073 18.0175C37.9866 19.7248 38.2263 20.5784 38.8239 21.1761C39.4216 21.7737 40.2752 22.0134 41.9825 22.4927L46.5609 23.778C55.5203 26.2933 60 27.551 60 30C60 32.449 55.5203 33.7067 46.5609 36.222L41.9825 37.5073C40.2752 37.9866 39.4216 38.2263 38.8239 38.8239C38.2263 39.4216 37.9866 40.2752 37.5073 41.9825L36.222 46.5609C33.7067 55.5203 32.449 60 30 60C27.551 60 26.2933 55.5203 23.778 46.5609L22.4927 41.9825C22.0134 40.2752 21.7737 39.4216 21.1761 38.8239C20.5784 38.2263 19.7248 37.9866 18.0175 37.5073L13.4391 36.222C4.47971 33.7067 0 32.449 0 30C0 27.551 4.47971 26.2933 13.4391 23.778L18.0175 22.4927C19.7248 22.0134 20.5784 21.7737 21.1761 21.1761C21.7737 20.5784 22.0134 19.7248 22.4927 18.0175L23.778 13.4391Z" fill="black" style="fill:black;fill-opacity:1;"/>
</svg>
