<svg width="18" height="18" viewBox="0 0 18 18" fill="none" xmlns="http://www.w3.org/2000/svg">
<path d="M2.77842 1.02475C2.67295 0.993368 2.56116 0.991801 2.4549 1.02021C2.34863 1.04863 2.25185 1.10596 2.17482 1.18613C2.09779 1.26631 2.04337 1.36634 2.01734 1.47562C1.99131 1.5849 1.99464 1.69936 2.02697 1.80686L4.00054 8.37709H10.9113C11.0727 8.37709 11.2275 8.44277 11.3417 8.55967C11.4558 8.67658 11.5199 8.83513 11.5199 9.00046C11.5199 9.16578 11.4558 9.32434 11.3417 9.44124C11.2275 9.55814 11.0727 9.62382 10.9113 9.62382H4.00054L2.02697 16.1941C1.99483 16.3015 1.99165 16.4159 2.01776 16.525C2.04388 16.6342 2.09832 16.734 2.17532 16.8141C2.25232 16.8942 2.34902 16.9514 2.45519 16.9798C2.56135 17.0082 2.67304 17.0066 2.77842 16.9753C8.14649 15.3765 13.2086 12.8506 17.7466 9.50663C17.825 9.4489 17.8889 9.37288 17.933 9.28487C17.977 9.19686 18 9.09937 18 9.00046C18 8.90155 17.977 8.80406 17.933 8.71604C17.8889 8.62803 17.825 8.55202 17.7466 8.49429C13.2087 5.14999 8.14655 2.62384 2.77842 1.02475Z" fill="black" style="fill:black;fill-opacity:1;"/>
</svg>
