<svg width="18" height="18" viewBox="0 0 18 18" fill="none" xmlns="http://www.w3.org/2000/svg">
<g clip-path="url(#clip0_2151_261)">
<path d="M9.00658 14.0279V3.13813M9.00658 14.0279C9.00707 14.4859 9.10145 14.9389 9.28388 15.359C9.46632 15.7791 9.73294 16.1573 10.0673 16.4703C10.4016 16.7833 10.7966 17.0245 11.2278 17.1789C11.659 17.3333 12.1172 17.3976 12.5743 17.368C13.0313 17.3383 13.4774 17.2153 13.885 17.0064C14.2926 16.7976 14.6531 16.5075 14.9442 16.1539C15.2353 15.8003 15.4508 15.3907 15.5774 14.9506C15.704 14.5105 15.739 14.049 15.6803 13.5948M9.00658 14.0279C9.00609 14.4859 8.91172 14.9389 8.72928 15.359C8.54685 15.7791 8.28023 16.1573 7.94589 16.4703C7.61155 16.7833 7.21659 17.0245 6.7854 17.1789C6.35421 17.3333 5.89595 17.3976 5.43891 17.368C4.98188 17.3383 4.53578 17.2153 4.12816 17.0064C3.72054 16.7976 3.36006 16.5075 3.06897 16.1539C2.77789 15.8003 2.56239 15.3907 2.43578 14.9506C2.30917 14.5105 2.27413 14.049 2.33284 13.5948M9.00658 3.13813C9.00657 2.75265 9.09523 2.37234 9.26571 2.02661C9.43619 1.68088 9.68392 1.37901 9.98973 1.14434C10.2955 0.909669 10.6512 0.748497 11.0293 0.673291C11.4074 0.598085 11.7977 0.610862 12.17 0.710631C12.5424 0.810401 12.8868 0.99449 13.1766 1.24866C13.4664 1.50282 13.6938 1.82025 13.8414 2.17639C13.9889 2.53253 14.0525 2.91783 14.0272 3.30248C14.002 3.68713 13.8886 4.06082 13.6959 4.39464M9.00658 3.13813C9.0066 2.75265 8.91794 2.37234 8.74746 2.02661C8.57698 1.68088 8.32925 1.37901 8.02343 1.14434C7.71762 0.909669 7.36192 0.748497 6.98385 0.673291C6.60578 0.598085 6.21548 0.610862 5.84314 0.710631C5.4708 0.810401 5.1264 0.99449 4.83659 1.24866C4.54677 1.50282 4.31932 1.82025 4.17181 2.17639C4.0243 2.53253 3.9607 2.91783 3.98593 3.30248C4.01116 3.68713 4.12453 4.06082 4.31729 4.39464M11.5196 9.83952C10.7948 9.62766 10.1583 9.18666 9.7052 8.58259C9.25215 7.97852 9.00704 7.24391 9.00658 6.48882C9.00613 7.24391 8.76102 7.97852 8.30796 8.58259C7.85491 9.18666 7.21832 9.62766 6.49356 9.83952M14.0301 3.24284C14.5225 3.36944 14.9796 3.60643 15.3668 3.93586C15.7541 4.26528 16.0613 4.67851 16.2652 5.14423C16.469 5.60996 16.5643 6.11597 16.5436 6.62395C16.523 7.13193 16.3871 7.62856 16.1461 8.07621M14.0326 14.0279C14.7702 14.0278 15.4872 13.7845 16.0723 13.3354C16.6574 12.8864 17.0781 12.2569 17.269 11.5444C17.4599 10.832 17.4104 10.0765 17.1281 9.39502C16.8459 8.71358 16.3467 8.14431 15.708 7.77549M3.98054 14.0279C3.24297 14.0278 2.52601 13.7845 1.94086 13.3354C1.35572 12.8864 0.935074 12.2569 0.744173 11.5444C0.553273 10.832 0.602781 10.0765 0.88502 9.39502C1.16726 8.71358 1.66646 8.14431 2.3052 7.77549M3.98306 3.24284C3.49067 3.36944 3.03356 3.60643 2.64632 3.93586C2.25909 4.26528 1.9519 4.67851 1.74801 5.14423C1.54413 5.60996 1.44889 6.11597 1.46953 6.62395C1.49016 7.13193 1.62611 7.62856 1.86709 8.07621" stroke="black" style="stroke:black;stroke-opacity:1;" stroke-width="1.25" stroke-linecap="round" stroke-linejoin="round"/>
</g>
<defs>
<clipPath id="clip0_2151_261">
<rect width="18" height="18" fill="white" style="fill:white;fill-opacity:1;"/>
</clipPath>
</defs>
</svg>
