<svg width="14" height="14" viewBox="0 0 14 14" fill="none" xmlns="http://www.w3.org/2000/svg">
<path d="M0.630001 10.1842L3.20284 4.01171C3.22704 3.95368 3.26786 3.90411 3.32017 3.86924C3.37249 3.83437 3.43395 3.81577 3.49682 3.81577C3.55969 3.81577 3.62115 3.83437 3.67347 3.86924C3.72578 3.90411 3.7666 3.95368 3.79079 4.01171L6.363 10.1842M13.37 5.72524V10.1842M1.46065 8.27324H5.53235M13.37 7.95474C13.37 9.18606 12.3718 10.1842 11.1405 10.1842C9.90918 10.1842 8.911 9.18606 8.911 7.95474C8.911 6.72342 9.90918 5.72524 11.1405 5.72524C12.3718 5.72524 13.37 6.72342 13.37 7.95474Z" stroke="black" style="stroke:black;stroke-opacity:1;" stroke-width="1.25" stroke-linecap="round" stroke-linejoin="round"/>
</svg>
