<svg width="19" height="19" viewBox="0 0 19 19" fill="none" xmlns="http://www.w3.org/2000/svg">
<path d="M18.375 4.36349H8.97184M8.97184 4.36349C8.97184 3.68235 8.70125 3.0291 8.21961 2.54746C7.73797 2.06582 7.08473 1.79523 6.40358 1.79523C5.72244 1.79523 5.06919 2.06582 4.58755 2.54746C4.10591 3.0291 3.83533 3.68235 3.83533 4.36349M8.97184 4.36349C8.97184 5.04463 8.70125 5.69788 8.21961 6.17952C7.73797 6.66116 7.08473 6.93175 6.40358 6.93175C5.72244 6.93175 5.06919 6.66116 4.58755 6.17952C4.10591 5.69788 3.83533 5.04463 3.83533 4.36349M3.83533 4.36349H0.625007M18.375 14.6365H15.1647M15.1647 14.6365C15.1647 13.9554 14.8941 13.3021 14.4125 12.8205C13.9308 12.3388 13.2776 12.0683 12.5964 12.0683C11.9153 12.0683 11.262 12.3388 10.7804 12.8205C10.2988 13.3021 10.0282 13.9554 10.0282 14.6365M15.1647 14.6365C15.1647 15.3177 14.8941 15.9709 14.4125 16.4525C13.9308 16.9342 13.2776 17.2048 12.5964 17.2048C11.9153 17.2048 11.262 16.9342 10.7804 16.4525C10.2988 15.9709 10.0282 15.3177 10.0282 14.6365M10.0282 14.6365H0.625" stroke="black" style="stroke:black;stroke-opacity:1;" stroke-width="1.25" stroke-linecap="round" stroke-linejoin="round"/>
</svg>
