<svg width="14" height="14" viewBox="0 0 14 14" fill="none" xmlns="http://www.w3.org/2000/svg">
<path fill-rule="evenodd" clip-rule="evenodd" d="M4 2.25V3H1.75C1.55109 3 1.36032 3.07902 1.21967 3.21967C1.07902 3.36032 1 3.55109 1 3.75C1 3.94891 1.07902 4.13968 1.21967 4.28033C1.36032 4.42098 1.55109 4.5 1.75 4.5H2.05L2.865 12.65C2.90218 13.0199 3.0754 13.3628 3.35107 13.6123C3.62675 13.8617 3.98523 13.9999 4.357 14H9.642C10.0139 14.0001 10.3727 13.8621 10.6486 13.6126C10.9244 13.3631 11.0978 13.0201 11.135 12.65L11.95 4.5H12.25C12.4489 4.5 12.6397 4.42098 12.7803 4.28033C12.921 4.13968 13 3.94891 13 3.75C13 3.55109 12.921 3.36032 12.7803 3.21967C12.6397 3.07902 12.4489 3 12.25 3H10V2.25C10 1.65326 9.76295 1.08097 9.34099 0.65901C8.91903 0.237053 8.34674 0 7.75 0H6.25C5.65326 0 5.08097 0.237053 4.65901 0.65901C4.23705 1.08097 4 1.65326 4 2.25ZM6.25 1.5C6.05109 1.5 5.86032 1.57902 5.71967 1.71967C5.57902 1.86032 5.5 2.05109 5.5 2.25V3H8.5V2.25C8.5 2.05109 8.42098 1.86032 8.28033 1.71967C8.13968 1.57902 7.94891 1.5 7.75 1.5H6.25ZM5.05 5C5.14852 4.99502 5.24705 5.00952 5.33996 5.04268C5.43286 5.07584 5.51832 5.127 5.59142 5.19323C5.66453 5.25946 5.72385 5.33946 5.76599 5.42865C5.80813 5.51784 5.83226 5.61447 5.837 5.713L6.112 11.213C6.11933 11.4101 6.04872 11.6022 5.91546 11.7476C5.7822 11.893 5.59702 11.9801 5.40002 11.9899C5.20302 11.9998 5.01007 11.9317 4.86295 11.8003C4.71583 11.6689 4.62639 11.4849 4.614 11.288L4.339 5.788C4.33388 5.68956 4.34821 5.59108 4.38118 5.49818C4.41416 5.40528 4.46511 5.3198 4.53115 5.24661C4.59718 5.17343 4.677 5.11397 4.76603 5.07166C4.85506 5.02934 4.95155 5.00499 5.05 5ZM8.95 5C9.04844 5.00487 9.14496 5.02909 9.23404 5.07129C9.32312 5.11349 9.403 5.17283 9.46913 5.24592C9.53525 5.31901 9.58632 5.40442 9.61942 5.49726C9.65251 5.5901 9.66698 5.68856 9.662 5.787L9.387 11.287C9.37461 11.4839 9.28517 11.6679 9.13805 11.7993C8.99093 11.9307 8.79798 11.9988 8.60098 11.9889C8.40398 11.9791 8.2188 11.892 8.08554 11.7466C7.95228 11.6012 7.88167 11.4091 7.889 11.212L8.164 5.712C8.17409 5.51354 8.26253 5.32719 8.4099 5.19389C8.55727 5.06058 8.75152 4.99021 8.95 5Z" fill="black" style="fill:black;fill-opacity:1;"/>
</svg>
